<?xml version="1.0" encoding="utf-8"?>
<!-- Generator: Adobe Illustrator 27.5.0, SVG Export Plug-In . SVG Version: 6.00 Build 0)  -->
<svg version="1.1" id="Layer_1" xmlns="http://www.w3.org/2000/svg" xmlns:xlink="http://www.w3.org/1999/xlink" x="0px" y="0px"
	 viewBox="0 0 5000 5000" style="enable-background:new 0 0 5000 5000;" xml:space="preserve">
<g>
	<g>
		<g>
			<g>
				<rect y="-2.418" style="fill:#386B86;" width="5002.414" height="5002.418"/>
			</g>
		</g>
	</g>
</g>
<path style="fill:#5197AF;" d="M825.817,4353.076H396.452l-2.835-9.137c0.328-1.061,0.559-2.16,0.679-3.289
	c0.063-0.604,0.199-1.188,0.199-1.814c0-5.313-2.427-10.109-6.333-13.57c-3.832-3.404-9.097-5.512-14.918-5.512h-8.898H219.511
	c-11.735,0-21.251,8.543-21.251,19.082s9.516,19.084,21.251,19.084h152.727l65.432,209.371c1.683,5.439,6.169,9.074,11.202,9.074
	h9.364l-16.114,74.763c-25.267,0.899-45.48,21.657-45.48,47.146c0,26.059,21.129,47.189,47.186,47.189
	c23.329,0,42.693-16.939,46.497-39.186h151.227c3.805,22.246,23.168,39.186,46.499,39.186c26.059,0,47.188-21.131,47.188-47.189
	c0-26.061-21.129-47.189-47.188-47.189c-22.091,0-40.633,15.187-45.77,35.688H489.595c-3.895-15.552-15.509-28.032-30.534-33.156
	l16.649-77.25h309.374c6.577,0,11.899-6.121,11.899-13.682c0-7.563-5.322-13.684-11.899-13.684h-27.257l8.853-27.365h3.383
	c4.484,0,8.12-4.168,8.12-9.339c0-4.149-2.356-7.662-5.611-8.878l18.345-56.713h7.783c4.497,0,8.123-4.184,8.123-9.341
	c0-5.171-3.626-9.354-8.123-9.354h-1.735l18.196-56.254h10.656c4.485,0,8.121-4.178,8.121-9.338
	C833.938,4357.245,830.303,4353.076,825.817,4353.076z M688.05,4662.883c19.537,0,35.391,15.854,35.391,35.391
	c0,19.563-15.854,35.391-35.391,35.391c-16.789,0-30.845-11.689-34.474-27.387c-0.595-2.572-0.92-5.25-0.92-8.004
	c0-4.027,0.683-7.893,1.924-11.502C659.359,4672.877,672.537,4662.883,688.05,4662.883z M477.293,4686.771
	c1.242,3.609,1.924,7.475,1.924,11.502c0,2.754-0.325,5.432-0.919,8.004c-3.629,15.697-17.684,27.387-34.472,27.387
	c-19.537,0-35.39-15.828-35.39-35.391c0-18.082,13.583-32.996,31.093-35.121c1.41-0.172,2.842-0.27,4.297-0.27
	c4.488,0,8.776,0.845,12.727,2.369C466.26,4668.998,473.897,4676.896,477.293,4686.771z M425.504,4446.705h41.787l6.337,56.252
	H442.96L425.504,4446.705z M483.755,4446.705h44.071l3.347,56.252H490.14L483.755,4446.705z M604.23,4446.705h46.856l-8.299,56.252
	h-38.78L604.23,4446.705z M588.271,4502.957H548.12l-3.617-56.252h43.782L588.271,4502.957z M604.305,4428.01l0.222-56.254h57.619
	l-8.3,56.254H604.305z M588.289,4428.01h-44.987l-3.617-56.254h48.617L588.289,4428.01z M526.714,4428.01h-45.081l-6.386-56.254
	h48.12L526.714,4428.01z M532.284,4521.635l1.628,27.365h-38.546l-3.106-27.365H532.284z M549.321,4521.635h38.947L588.262,4549
	H551.08L549.321,4521.635z M603.934,4521.635h36.098L635.994,4549h-32.169L603.934,4521.635z M656.534,4521.635h38.556L688.491,4549
	H652.5L656.534,4521.635z M659.288,4502.957l8.292-56.252h45.581l-13.566,56.252H659.288z M670.336,4428.01l8.292-56.254h52.608
	l-13.566,56.254H670.336z M458.848,4371.756l6.337,56.254h-45.481l-17.456-56.254H458.848z M448.756,4521.635h26.977l3.083,27.365
	h-21.569L448.756,4521.635z M739.411,4549h-33.879l6.571-27.365h36.32L739.411,4549z M754.571,4502.957h-37.986l13.505-56.252
	h43.005L754.571,4502.957z M779.251,4428.01h-44.674l13.505-56.254h49.693L779.251,4428.01z"/>
<g>
	<path style="fill:#5197AF;" d="M1168.365,4420.055c-62.066,0-112.567,50.486-112.567,112.553
		c0,62.061,50.501,112.554,112.567,112.554c62.064,0,112.554-50.493,112.554-112.554
		C1280.919,4470.541,1230.429,4420.055,1168.365,4420.055z M1177.041,4591.594v19.668h-18.894v-18.314
		c-12.917-0.571-25.451-4.049-32.775-8.281l5.788-22.57c8.094,4.434,19.474,8.486,32.001,8.486c10.985,0,18.509-4.222,18.509-11.942
		c0-7.329-6.174-11.95-20.438-16.78c-20.627-6.932-34.706-16.568-34.706-35.268c0-16.963,11.963-30.268,32.586-34.313v-18.311
		h18.892v16.955c12.913,0.58,21.587,3.287,27.948,6.362l-5.587,21.77c-5.013-2.101-13.884-6.544-27.764-6.544
		c-12.532,0-16.569,5.402-16.569,10.805c0,6.357,6.74,10.405,23.13,16.568c22.93,8.106,32.194,18.693,32.194,36.057
		C1211.354,4573.082,1199.207,4587.727,1177.041,4591.594z"/>
	<path style="fill:#5197AF;" d="M1331.392,4497.082c-1.157-5.338-2.572-10.572-4.219-15.705
		c-7.716-23.951-20.71-45.516-37.605-63.372c-30.403-32.155-73.436-52.245-121.188-52.245c-92.157,0-166.865,74.684-166.865,166.826
		c0,92.166,74.708,166.871,166.865,166.871c57.068,0,107.428-28.676,137.512-72.393c11.227-16.314,19.616-34.73,24.482-54.543
		c1.194-4.85,2.197-9.773,2.954-14.777c1.24-8.207,1.889-16.602,1.889-25.158
		C1335.216,4520.398,1333.878,4508.523,1331.392,4497.082z M1168.365,4661.053c-70.937,0-128.451-57.507-128.451-128.451
		c0-70.938,57.515-128.438,128.451-128.438c70.945,0,128.441,57.499,128.441,128.438
		C1296.806,4603.546,1239.31,4661.053,1168.365,4661.053z"/>
</g>
<g>
	<g>
		<path style="fill:#5197AF;" d="M1681.714,4674.291c-5.312-7.35-15.594-9.018-22.983-3.73l-8.909,6.391
			c-3.764,2.697-6.027,6.688-6.655,10.921l-79.325-109.704c4.596,1.209,9.68,0.438,13.844-2.545l8.895-6.381
			c7.386-5.301,9.063-15.552,3.756-22.905l-29.946-41.397c-4.584-6.347-12.874-8.442-19.814-5.497
			c-1.099,0.464-2.167,1.048-3.175,1.768l-8.895,6.392c-5.099,3.652-7.468,9.662-6.711,15.447c-0.741,0.576-1.465,1.162-2.169,1.771
			c-20.686,17.673-24.688,48.479-8.462,70.924l100.497,138.971c12.413,17.164,33.228,24.681,52.808,21.035
			c2.7-0.527,9.117-2.068,15.818-5.667c0.575-0.319,1.146-0.632,1.713-0.971c0.103-0.058,0.205-0.122,0.302-0.183
			c0.818-0.494,1.634-1.012,2.43-1.555c4.71,1.375,9.98,0.662,14.274-2.418l1.019-0.729l7.89-5.661
			c3.591-2.58,5.821-6.337,6.56-10.359c0.771-4.232-0.105-8.758-2.829-12.528L1681.714,4674.291z"/>
		<path style="fill:#5197AF;" d="M1656.315,4565.557l-21.792,19.637v23.762h119.596v-32.286h-63.557v-0.519l15.565-12.919
			c24.382-21.705,44.876-44.183,44.876-72.349c0-30.489-21.011-52.706-59.151-52.706c-22.823,0-42.538,7.753-55.256,17.313
			l11.159,28.161c8.823-6.721,21.533-13.951,36.059-13.951c19.459,0,27.757,10.856,27.757,24.544
			C1711.057,4513.881,1693.157,4532.74,1656.315,4565.557z"/>
		<path style="fill:#5197AF;" d="M1837.395,4441.02l-63.818,102.317v25.576h74.709v40.042h37.352v-40.042h20.238v-29.456h-20.238
			v-98.438H1837.395z M1848.286,4502.253v37.204h-37.88v-0.512l22.572-36.692c5.708-10.59,10.123-20.411,15.569-31.262h1.036
			C1848.801,4481.842,1848.286,4492.176,1848.286,4502.253z"/>
		<path style="fill:#5197AF;" d="M1921.969,4663.346c26.511-36.83,42.13-81.963,42.13-130.736
			c0-124.055-100.979-224.619-225.537-224.619c-19.458,0-38.341,2.468-56.358,7.088l-35.74-7.088l5.398,17.22
			c-69.928,29.044-122.026,92.146-135.406,168.507l20.772-7.693c8.598-37.178,27.474-71.305,55.222-98.943
			c18.997-18.924,41.048-33.689,65.036-43.887l7.276,23.258l34.393-35.926c12.854-2.461,26.037-3.73,39.407-3.73
			c55.202,0,107.092,21.41,146.125,60.285c39.029,38.867,60.526,90.553,60.526,145.529c0,43.141-13.234,84.246-37.798,118.729
			l-17.269-14.256l-8.201,43.734c-38.706,37.174-89.459,57.607-143.384,57.607c-0.803,0-1.624-0.013-2.435-0.023l-13.238,18.283
			c5.184,0.364,10.404,0.543,15.672,0.543c61.918,0,117.999-24.854,158.751-65.082l40.172-15.996L1921.969,4663.346z"/>
	</g>
</g>
<g>
	<path style="fill:#5197AF;" d="M2394.409,4313.46c0-22.382-18.135-40.519-40.517-40.519h-24.996H2303.9
		c-22.381,0-40.516,18.137-40.516,40.519v210.616h-46.408l111.92,124.456l0.187,0.206l111.735-124.662h-46.409V4313.46z
		 M2275.278,4420.123c0-6.824,2.303-12.532,6.905-17.137c4.605-4.606,10.314-6.91,17.14-6.91c6.819,0,12.533,2.304,17.14,6.91
		c4.602,4.604,6.904,10.313,6.904,17.137c0,6.82-2.302,12.537-6.904,17.138c-4.607,4.604-10.321,6.906-17.14,6.906
		c-6.825,0-12.535-2.302-17.14-6.906C2277.581,4432.66,2275.278,4426.943,2275.278,4420.123z M2328.896,4458.826l-19.152,33.88
		h-15.727l34.879-61.562l19.469-34.361h15.608L2328.896,4458.826z M2375.676,4486.374c-4.566,4.558-10.233,6.841-17.011,6.841
		c-6.776,0-12.449-2.283-17.012-6.841c-4.564-4.563-6.841-10.233-6.841-17.011c0-6.78,2.276-12.45,6.841-17.012
		c4.563-4.564,10.235-6.84,17.012-6.84c6.777,0,12.444,2.275,17.011,6.84c4.562,4.562,6.846,10.231,6.846,17.012
		C2382.521,4476.141,2380.237,4481.811,2375.676,4486.374z"/>
	<path style="fill:#5197AF;" d="M2311.28,4420.059c0-3.62-1.126-6.637-3.386-9.049c-2.264-2.41-5.208-3.611-8.829-3.611
		c-3.539,0-6.438,1.201-8.697,3.611c-2.26,2.412-3.392,5.429-3.392,9.049c0,3.621,1.131,6.65,3.392,9.083
		c2.259,2.429,5.18,3.645,8.758,3.645c3.582,0,6.503-1.216,8.767-3.645C2310.153,4426.709,2311.28,4423.68,2311.28,4420.059z"/>
	<path style="fill:#5197AF;" d="M2358.284,4456.956c-3.459,0-6.29,1.182-8.507,3.548c-2.22,2.371-3.328,5.304-3.328,8.791
		c0,3.545,1.108,6.499,3.328,8.859c2.217,2.363,5.071,3.551,8.567,3.551c3.495,0,6.352-1.188,8.566-3.551
		c2.219-2.36,3.328-5.314,3.328-8.859c0-3.487-1.109-6.42-3.328-8.791C2364.696,4458.138,2361.818,4456.956,2358.284,4456.956z"/>
	<path style="fill:#5197AF;" d="M2187.051,4718.976c-15.555-5.898-22.351-9.298-22.351-16.983c0-6.254,5.72-11.621,17.522-11.621
		c11.801,0,20.377,3.399,25.205,5.724l6.078-21.991c-7.15-3.217-17.162-6.078-30.747-6.078c-28.423,0-45.587,15.73-45.587,36.292
		c0,17.521,13.047,28.604,33.07,35.575c14.483,5.184,20.201,9.475,20.201,16.982c0,7.87-6.612,13.054-19.124,13.054
		c-11.623,0-22.884-3.757-30.212-7.509l-5.545,22.523c6.793,3.754,20.377,7.332,34.147,7.332c33.072,0,48.627-17.162,48.627-37.365
		C2218.337,4737.928,2208.326,4726.844,2187.051,4718.976z"/>
	<path style="fill:#5197AF;" d="M2264.809,4669.992l-36.821,120.496h28.243l8.579-30.932h34.506l9.292,30.932h29.322
		l-37.364-120.496H2264.809z M2268.741,4739.178l7.149-25.566c1.971-6.97,3.757-16.087,5.545-23.24h0.358
		c1.79,7.153,3.93,16.092,6.077,23.24l7.506,25.566H2268.741z"/>
	<polygon style="fill:#5197AF;" points="2381.364,4669.992 2354.009,4669.992 2354.009,4790.488 2429.276,4790.488 
		2429.276,4767.604 2381.364,4767.604 	"/>
	<polygon style="fill:#5197AF;" points="2472.707,4768.143 2472.707,4739.536 2517.043,4739.536 2517.043,4717.371 
		2472.707,4717.371 2472.707,4692.34 2519.725,4692.34 2519.725,4669.992 2445.355,4669.992 2445.355,4790.488 2522.229,4790.488 
		2522.229,4768.143 	"/>
</g>
<g>
	<path style="fill:#5197AF;" d="M3266.602,4495.219c-6.351-0.998-12.492,3.338-13.549,9.771l-11.752,72.357h-55.435v-64.195h-11.809
		v64.195h-60.381v-66.283h-11.804v66.283h-57.234v-65.24h-11.806v65.24h-60.383v-65.24h-11.81v65.24h-59.34v-66.283h-11.812v66.283
		h-59.292l-8.87-68.843c-0.829-6.458-6.537-11.068-13.228-10.2c-6.468,0.83-11.032,6.754-10.204,13.222l26.152,202.956
		c0.763,5.896,5.782,10.3,11.718,10.3h395.469c5.789,0,10.726-4.198,11.659-9.916l33.476-206.097
		C3277.407,4502.336,3273.037,4496.271,3266.602,4495.219z M3239.386,4589.158l-10.147,62.431l-43.372-0.116v-62.314H3239.386z
		 M3174.058,4589.158v62.295l-60.381-0.162v-62.133H3174.058z M2972.45,4662.742l60.383,0.152v38.271h-60.383V4662.742z
		 M2960.641,4701.165h-59.34v-38.597l59.34,0.151V4701.165z M3044.639,4662.926l57.234,0.151v38.088h-57.234V4662.926z
		 M3113.677,4663.1l60.381,0.162v37.903h-60.381V4663.1z M3101.873,4589.158v62.109l-57.234-0.15v-61.959H3101.873z
		 M3032.833,4589.158v61.924l-60.383-0.148v-61.775H3032.833z M2960.641,4589.158v61.753l-59.34-0.151v-61.602H2960.641z
		 M2889.489,4589.158v61.568l-49.848-0.129l-7.924-61.439H2889.489z M2841.162,4662.406l48.327,0.129v38.63h-43.333
		L2841.162,4662.406z M3185.866,4701.165v-37.882l41.46,0.104l-6.134,37.777H3185.866z"/>
	<path style="fill:#5197AF;" d="M3298.188,4482.295c0,20.51-16.627,37.138-37.146,37.138h-447.76
		c-20.52,0-37.146-16.628-37.146-37.138l0,0c0-20.516,16.627-37.146,37.146-37.146h447.76
		C3281.562,4445.148,3298.188,4461.779,3298.188,4482.295L3298.188,4482.295z"/>
	<path style="fill:#5197AF;" d="M2887.244,4486.747c-4.646,0-9.284-1.813-12.769-5.429c-6.778-7.045-6.561-18.258,0.484-25.047
		l110.903-106.713c7.046-6.791,18.243-6.572,25.043,0.483c6.783,7.049,6.563,18.259-0.479,25.05l-110.9,106.711
		C2896.085,4485.105,2891.66,4486.747,2887.244,4486.747z"/>
	<path style="fill:#5197AF;" d="M3173.899,4487.794c-4.59,0-9.181-1.771-12.64-5.304l-109.851-111.943
		c-6.847-6.984-6.748-18.201,0.231-25.055c6.988-6.838,18.22-6.727,25.046,0.236l109.854,111.945
		c6.848,6.982,6.743,18.195-0.234,25.054C3182.86,4486.105,3178.374,4487.794,3173.899,4487.794z"/>
</g>
<g>
	<path style="fill:#5197AF;" d="M4034.328,4481.283v235.865h-517.692v-235.865H4034.328 M4056.359,4459.246h-561.759v279.932
		h561.759V4459.246L4056.359,4459.246z"/>
	<rect x="3561.249" y="4520.19" style="fill:#5197AF;" width="251.358" height="22.847"/>
	<rect x="3561.249" y="4562.08" style="fill:#5197AF;" width="251.358" height="15.242"/>
	<rect x="3561.249" y="4599.016" style="fill:#5197AF;" width="251.358" height="12.777"/>
	<path style="fill:#5197AF;" d="M3993.095,4690.833c-1.125,0-2.258-0.352-3.232-1.053l-21.853-15.851l-23.653,15.953
		c-2.051,1.387-4.778,1.225-6.658-0.388l-27.154-23.274l-25.79,20.306c-1.804,1.423-4.303,1.575-6.268,0.378l-34.675-21.036
		l-27.617,23.635c-1.666,1.424-4.01,1.723-5.972,0.782l-49.259-23.73c-2.743-1.32-3.895-4.612-2.57-7.349
		c1.316-2.75,4.617-3.896,7.343-2.575l46.021,22.158l27.92-23.889c1.815-1.531,4.404-1.756,6.442-0.514l34.821,21.121l26.343-20.745
		c2.06-1.627,4.995-1.56,6.996,0.146l27.398,23.487l23.367-15.754c1.921-1.305,4.44-1.248,6.314,0.104l24.97,18.11
		c2.465,1.79,3.012,5.224,1.228,7.696C3996.481,4690.037,3994.797,4690.833,3993.095,4690.833z"/>
	<path style="fill:#5197AF;" d="M3865.65,4622.16c2.821-0.129,6.359-1.662,10.392-4.72l58.231-44.423
		c1.339-1.021,2.457-2.137,3.476-3.239l0.168,0.104l0.555-0.884c1.262-1.525,2.178-3.115,2.904-4.728l11.123-18.044l9.957-16.179
		l30.076-48.771l0,0l21.385-34.68l7.969-12.93l12.967-21.04l20.895-33.897c0.444-0.694,0.718-1.484,1.092-2.234
		c0.373-0.438,0.829-0.846,1.153-1.371c2.269-3.693,2.759-8.098,1.788-12.557c-0.543-8.793-5.124-17.164-13.104-22.082
		l-16.788-10.346c-4.909-3.033-10.423-4.328-15.803-4.07c-3.157,0.145-6.188,0.991-9.112,2.157c-4.718,1.083-8.712,3.504-11.1,7.357
		c-0.354,0.591-0.553,1.256-0.824,1.89c-0.45,0.596-1.013,1.089-1.414,1.734l-36.525,59.25l-2.341,3.795l0.021-0.007l-14.59,23.649
		l-11.016,17.883l-38.794,62.949l-11.486,18.621c-0.909,1.187-1.777,2.459-2.437,3.962l-0.66,1.071l0.247,0.147
		c-0.54,1.438-1.159,2.794-1.465,4.474l-13.524,71.966C3857.173,4617.011,3859.949,4622.434,3865.65,4622.16z M3996.515,4357.781
		c2.58,3.649,6.029,7.057,10.348,9.728l16.781,10.345c4.333,2.678,8.91,4.232,13.332,4.905l-13.96,22.603l-40.446-24.947
		L3996.515,4357.781z M3958.245,4424.968h-0.017l14.584-23.647l4.722-7.691l7.536,4.632c0,0-2.339,3.812-2.505,4.058
		c-0.837,1.359-9.192,14.908-13.645,22.154c-20.374,33.039-62.262,101.021-62.262,101.021l-5.267-3.257
		c-0.818-0.508-1.636-0.688-2.44-1.092L3958.245,4424.968z M3886.164,4537.972l39.334,24.263l-51.229,39.064L3886.164,4537.972z"/>
</g>
<g>
	<polygon style="fill:#5197AF;" points="4459.229,4318.578 4441.962,4318.578 4441.962,4597.966 4459.229,4585.739 	"/>
	<path style="fill:#5197AF;" d="M4516.769,4676.319h34.992c-7.102-2.847-13.959-6.267-20.492-10.254L4516.769,4676.319z"/>
	<path style="fill:#5197AF;" d="M4601.603,4318.578h-15.381v92.137c5.1-0.646,10.23-1.002,15.381-1.074V4318.578z"/>
	<path style="fill:#5197AF;" d="M4517.493,4439.453c12.063-9.519,25.654-16.932,40.031-21.993v-98.882h-71.549v155.968
		C4494.282,4461.268,4504.853,4449.44,4517.493,4439.453z"/>
	<polygon style="fill:#5197AF;" points="4414.328,4318.578 4379.814,4318.578 4379.814,4641.938 4414.328,4617.513 	"/>
	<rect x="4270.956" y="4318.578" style="fill:#5197AF;" width="28.046" height="357.741"/>
	<polygon style="fill:#5197AF;" points="4331.96,4675.8 4331.96,4318.578 4316.157,4318.578 4316.157,4676.319 4331.231,4676.319 	
		"/>
	<polygon style="fill:#5197AF;" points="4359.096,4318.578 4343.333,4318.578 4343.333,4667.74 4359.096,4656.604 	"/>
	<path style="fill:#5197AF;" d="M4639.003,4414.403v-95.825h-15.375v92.599c3.754,0.555,7.486,1.269,11.176,2.133
		C4636.226,4413.66,4637.622,4414.02,4639.003,4414.403z"/>
	<path style="fill:#5197AF;" d="M4695.88,4318.578h-23.494v109.637c8.39,4.862,16.279,10.57,23.494,17.074V4318.578z"/>
	<path style="fill:#5197AF;" d="M4672.386,4667.7v8.619h23.494v-25.687c-2.414,2.176-4.889,4.291-7.454,6.306
		C4683.323,4660.915,4677.948,4664.49,4672.386,4667.7z"/>
	<path style="fill:#5197AF;" d="M4716.387,4318.578v149.876c16.284,23.205,25.218,51.116,25.218,79.435
		c0,10.366-1.207,20.72-3.521,30.781v0.203l-0.258,1.073c-4.073,17.116-11.424,33.245-21.438,47.511v48.862h32.042v-357.741
		H4716.387z"/>
	<path style="fill:#5197AF;" d="M4728.634,4577.75v-0.036l0.059-0.413c2.329-9.801,3.436-19.678,3.436-29.412v-0.036
		c0-21.9-5.601-42.983-15.741-61.534c-3.354-6.165-7.222-12.029-11.538-17.559c-2.808-3.594-5.795-7.052-8.969-10.343
		c-6.99-7.235-14.854-13.694-23.494-19.194c-10.139-6.438-21.316-11.541-33.383-15.014c-2.092-0.6-4.208-1.176-6.363-1.688
		c-1.231-0.288-2.451-0.551-3.684-0.811c-0.209-0.043-0.414-0.078-0.633-0.113c-1.01-0.207-2.037-0.412-3.048-0.579
		c-0.386-0.079-0.764-0.125-1.147-0.183c-0.179-0.039-0.332-0.049-0.5-0.089c-0.686-0.11-1.369-0.22-2.055-0.315
		c-0.418-0.075-0.871-0.125-1.288-0.174c-0.803-0.118-1.594-0.221-2.394-0.313c-0.509-0.067-1.049-0.103-1.563-0.156
		c-0.697-0.068-1.416-0.156-2.109-0.218c-0.568-0.046-1.117-0.084-1.681-0.121c-0.665-0.048-1.332-0.092-2.005-0.141
		c-0.58-0.029-1.154-0.054-1.746-0.068c-0.622-0.031-1.281-0.067-1.916-0.081c-0.584-0.032-1.178-0.032-1.779-0.032
		c-0.606-0.008-1.203-0.025-1.805-0.025c-0.057,0-0.086,0-0.126,0h-1.062c-0.161,0-0.318,0.018-0.498,0.018
		c-5.176,0.054-10.314,0.432-15.381,1.106c-9.908,1.321-19.512,3.802-28.697,7.299c-31.19,11.872-57.293,35.662-71.549,67.152
		c-3.412,7.548-6.173,15.523-8.135,23.901c-2.326,9.861-3.441,19.736-3.441,29.479c0,11.213,1.477,22.158,4.293,32.699l0.611,2.36
		l-20.074,14.217l-17.268,12.233l-5.396,3.809l-6.449,4.568l-15.788,11.156l-34.514,24.423l-20.719,14.671l-11.492,8.126
		l-44.259,31.309c-10.971,7.743-16.966,20.08-17.059,32.526l0.182,0.863l-0.158,0.303c0.177,7.808,2.6,15.677,7.43,22.497
		l2.76,3.888l1.658,2.339c7.834,11.021,20.299,16.964,32.827,16.981h0.104l0.053-0.018c7.971,0,16.174-2.428,23.17-7.396
		l5.592-3.973v0.024l108.036-76.406l5.612-3.952l26.846-18.985l30.605-21.644l1.982,1.293c7.6,4.946,15.815,9.134,24.539,12.449
		c5.265,2.016,10.703,3.682,16.322,5.004c4.142,0.971,8.262,1.688,12.375,2.243c1.905,0.263,3.822,0.476,5.723,0.654
		c3.818,0.326,7.623,0.504,11.413,0.504h0.03c6.834,0,13.602-0.568,20.24-1.634c5.213-0.832,10.353-1.984,15.375-3.441
		c11.826-3.433,23.069-8.521,33.383-15.09c8.525-5.416,16.425-11.843,23.494-19.148c7.971-8.236,14.909-17.574,20.507-27.879
		C4721.745,4599.809,4725.905,4589.147,4728.634,4577.75z M4422.12,4713.531l-68.621,45.684c-4.362,2.9-9.348,4.318-14.264,4.318
		c-8.279,0-16.48-4.048-21.395-11.455c0-0.004-0.002-0.006-0.006-0.006c-2.955-4.402-4.35-9.362-4.35-14.253
		c0-8.313,4.032-16.492,11.479-21.435l60.2-40.065l8.418-5.612c4.349-2.918,9.343-4.336,14.246-4.336c2.189,0,4.382,0.284,6.5,0.843
		c4.083,1.059,7.908,3.142,11.08,6.12c1.42,1.332,2.724,2.828,3.833,4.523c2.957,4.369,4.346,9.337,4.346,14.26
		C4433.587,4700.387,4429.544,4708.555,4422.12,4713.531z M4672.386,4597.553c-8.75,11.125-20.197,20.006-33.383,25.66
		c-4.9,2.104-10.047,3.756-15.375,4.912c-5.865,1.273-11.932,1.947-18.182,1.955c-1.285,0-2.563-0.032-3.844-0.085
		c-5.262-0.241-10.412-0.975-15.381-2.129c-10.426-2.413-20.141-6.72-28.697-12.579c-8.757-5.984-16.332-13.575-22.322-22.332
		c-9.336-13.652-14.813-30.158-14.831-47.945c0.03-29.193,14.751-54.945,37.153-70.287c8.557-5.85,18.271-10.164,28.697-12.584
		c4.969-1.148,10.119-1.881,15.381-2.119c1.281-0.046,2.559-0.088,3.844-0.088c6.25,0,12.316,0.682,18.182,1.953
		c5.328,1.156,10.475,2.803,15.375,4.914c13.186,5.65,24.633,14.549,33.383,25.668c0.01,0.009,0.019,0.02,0.028,0.033
		c11.361,14.473,18.157,32.698,18.157,52.51C4690.571,4564.863,4683.765,4583.095,4672.386,4597.553z"/>
</g>
<g>
	<g>
		<g>
			<path style="fill:#D5D3D2;" d="M2901.414,3531.2c0,83.518-55.821,151.229-124.658,151.229h-582.399
				c-68.856,0-124.66-67.712-124.66-151.229v-231.943c0-83.519,55.804-151.239,124.66-151.239h582.399
				c68.837,0,124.658,67.721,124.658,151.239V3531.2z"/>
			<path style="fill:#FFFFFF;" d="M3981.369,3121.681c0,83.501-67.692,151.212-151.203,151.212H1140.945
				c-83.512,0-151.214-67.711-151.214-151.212V1311.456c0-83.501,67.702-151.213,151.214-151.213h2689.221
				c83.511,0,151.203,67.712,151.203,151.213V3121.681z"/>
			<polygon style="fill:#FFFFFF;" points="2900.508,3548.825 2070.604,3548.825 1675.066,3816.018 3296.044,3816.018 			"/>
			<rect x="2181.58" y="3125.908" style="fill:#FFFFFF;" width="607.933" height="44.217"/>
		</g>
	</g>
	<g>
		<path style="fill:#C3E1DB;" d="M3696.418,1334.453H1274.68c-75.226,0-136.172,55.244-136.172,123.39v1476.916
			c0,41.195,22.36,77.573,56.61,99.989l2584.789-1674.249C3756.843,1344.23,3727.915,1334.453,3696.418,1334.453z"/>
		<path style="fill:#9AD2D9;" d="M3779.907,1360.499L1195.118,3034.748c22.384,14.648,49.821,23.376,79.562,23.376h2421.738
			c75.219,0,136.183-55.236,136.183-123.365V1457.843C3832.601,1418.244,3811.922,1383.078,3779.907,1360.499z"/>
	</g>
	<g>
		<g>
			<polygon style="fill:none;" points="1632.617,1324.67 1632.674,1320.537 1632.54,1319.378 1632.445,1324.68 			"/>
			<path style="fill:none;" d="M1274.872,1712.312c-0.477,3.513-0.925,7.048-1.634,10.498c0.378,2.16,0.955,4.258,1.403,6.405
				c0.53-2.128,1.152-4.205,1.596-6.355C1275.647,1719.388,1275.273,1715.843,1274.872,1712.312z"/>
			<polygon style="fill:none;" points="1621.656,1666.266 1632.617,1324.67 1632.445,1324.68 			"/>
			<polygon style="fill:none;" points="2674.315,1333.756 2674.258,1337.386 2675.172,1337.399 2675.213,1333.756 			"/>
			<polygon style="fill:none;" points="3370.348,1343.371 3293.727,1227.068 3370.338,1343.85 			"/>
			<path style="fill:#EF5755;" d="M1274.872,1712.312c-0.312-2.906-0.61-5.821-0.758-8.782c-0.278-4.084-0.493-8.167-0.443-12.341
				l11.218-371.31l-347.573-4.789l-11.214,371.282c-1.281,93.18,73.205,169.746,166.369,171.027l16.194,0.218
				c80.092,1.1,147.69-53.838,165.977-128.403c-0.448-2.146-1.025-4.245-1.403-6.405
				C1273.947,1719.36,1274.396,1715.825,1274.872,1712.312z"/>
			<path style="fill:#FFFFFF;" d="M1632.445,1324.68l-347.557-4.8l-11.218,371.31c-0.05,4.174,0.118,8.271,0.443,12.341
				c0.147,2.96,0.446,5.876,0.758,8.782c0.401,3.531,0.775,7.076,1.365,10.548c-0.443,2.15-1.065,4.227-1.596,6.355
				c16.258,75.045,82.309,131.829,162.396,132.934l16.179,0.222c88.82,1.227,165.48-66.367,173.315-153.354
				c-3.379-13.671-5.079-28.022-4.876-42.751L1632.445,1324.68z"/>
			<path style="fill:#FFFFFF;" d="M1273.671,1691.189c-0.05,4.174,0.165,8.257,0.443,12.341
				C1273.789,1699.46,1273.621,1695.364,1273.671,1691.189z"/>
			<path style="fill:#EF5755;" d="M1980.022,1329.473l-347.405-4.802l-10.961,341.595c-0.203,14.729,1.497,29.08,4.876,42.751
				c17.909,72.754,83.074,127.165,161.484,128.252l16.188,0.204c82.363,1.136,151.677-56.932,167.586-134.748
				c-1.805-10.294-2.724-20.855-2.578-31.683L1980.022,1329.473z"/>
			<path style="fill:#FFFFFF;" d="M2327.581,1334.271l-347.559-4.799l-10.81,341.569c-0.146,10.828,0.773,21.388,2.578,31.683
				c13.723,78.214,81.428,138.193,163.783,139.33l16.195,0.231c79.977,1.086,147.673-53.637,166.061-128.103
				c-0.891-7.465-1.376-15.097-1.268-22.865L2327.581,1334.271z"/>
			<path style="fill:#EF5755;" d="M2675.145,1339.065l-347.563-4.794l-11.019,357.045c-0.108,7.769,0.377,15.4,1.268,22.865
				c10.041,82.519,79.679,146.989,165.093,148.184l16.204,0.208c82.352,1.15,151.689-56.934,167.58-134.767
				c-1.807-10.271-2.73-20.845-2.585-31.691L2675.145,1339.065z"/>
			<path style="fill:#FFFFFF;" d="M3022.712,1343.869l-347.567-4.803l-11.022,357.05c-0.146,10.846,0.778,21.421,2.585,31.691
				c13.721,78.236,81.443,138.217,163.774,139.354l16.215,0.212c89.933,1.241,164.368-68.132,170.58-156.735
				c-3.505-13.961-5.325-28.615-5.112-43.701L3022.712,1343.869z"/>
			<path style="fill:#EF5755;" d="M3370.279,1348.658l-347.567-4.79l-10.548,323.067c-0.213,15.086,1.607,29.74,5.112,43.701
				c18.242,72.274,83.172,126.237,161.253,127.306l16.193,0.24c79.98,1.104,147.681-53.642,166.06-128.071
				c-0.914-7.528-1.362-15.12-1.263-22.87L3370.279,1348.658z"/>
			<path style="fill:#FFFFFF;" d="M3717.839,1353.455l-347.56-4.797l-10.76,338.584c-0.1,7.75,0.349,15.342,1.263,22.87
				c10.032,82.497,79.688,146.966,165.115,148.134l16.192,0.217c82.322,1.141,151.688-56.935,167.555-134.771
				c-1.801-10.267-2.715-20.851-2.563-31.652L3717.839,1353.455z"/>
			<path style="fill:#EF5755;" d="M3717.839,1353.455l-10.757,338.585c-0.152,10.801,0.762,21.386,2.563,31.652
				c13.753,78.258,81.457,138.211,163.784,139.343l16.211,0.23c93.164,1.276,169.731-73.175,171.023-166.355l10.769-338.584
				L3717.839,1353.455z"/>
		</g>
		<g>
			<polygon style="fill:none;" points="2327.69,1328.966 2330.018,1160.433 2329.98,1160.433 2327.641,1328.979 			"/>
			<polygon style="fill:none;" points="3250.027,1160.433 3249.824,1160.433 3293.727,1227.068 			"/>
			<polygon style="fill:none;" points="3717.92,1348.16 3523.122,1160.433 3521.642,1160.433 3717.889,1349.618 			"/>
			<polygon style="fill:none;" points="3370.348,1343.371 3293.727,1227.068 3370.338,1343.85 			"/>
			<polygon style="fill:none;" points="2675.172,1337.399 2675.213,1333.756 2674.315,1333.756 2674.258,1337.386 			"/>
			<polygon style="fill:none;" points="1736.084,1160.433 1632.54,1319.378 1736.446,1160.433 			"/>
			<polygon style="fill:#B92327;" points="1441.741,1160.433 1189.473,1160.433 937.394,1309.794 937.315,1315.091 
				1284.889,1319.88 1284.968,1314.589 			"/>
			<polygon style="fill:#E6DBE3;" points="1441.741,1160.433 1284.968,1314.589 1284.889,1319.88 1632.445,1324.68 
				1632.54,1319.378 1736.084,1160.433 			"/>
			<polygon style="fill:#B92327;" points="2041.137,1160.433 1736.446,1160.433 1632.54,1319.378 1632.674,1320.537 
				1632.617,1324.67 1980.022,1329.473 1980.098,1324.167 			"/>
			<polygon style="fill:#E6DBE3;" points="2329.98,1160.433 2041.137,1160.433 1980.098,1324.167 1980.022,1329.473 
				2327.581,1334.271 2327.641,1328.979 			"/>
			<polygon style="fill:#B92327;" points="2674.258,1337.386 2674.315,1333.756 2676.707,1160.433 2330.018,1160.433 
				2327.69,1328.966 2327.641,1328.979 2327.581,1334.271 2675.145,1339.065 2675.172,1337.399 			"/>
			<polygon style="fill:#E6DBE3;" points="2956.085,1160.433 2676.707,1160.433 2674.315,1333.756 2675.213,1333.756 
				2675.172,1337.399 2675.145,1339.065 3022.712,1343.869 3022.781,1338.572 			"/>
			<polygon style="fill:#B92327;" points="3293.727,1227.068 3249.824,1160.433 2956.085,1160.433 3022.781,1338.572 
				3022.712,1343.869 3370.279,1348.658 3370.338,1343.85 			"/>
			<polygon style="fill:#E6DBE3;" points="3521.642,1160.433 3250.027,1160.433 3293.727,1227.068 3370.348,1343.371 
				3370.338,1343.85 3370.279,1348.658 3717.839,1353.455 3717.889,1349.618 			"/>
			<polygon style="fill:#B92327;" points="3794.592,1160.433 3523.122,1160.433 3717.92,1348.16 3717.889,1349.618 
				3717.839,1353.455 4071.432,1358.327 4071.5,1353.048 			"/>
		</g>
	</g>
	<g>
		<g>
			<rect x="1268.644" y="1890.21" style="fill:#FFFFFF;" width="759.646" height="759.643"/>
			<rect x="1320.589" y="1942.15" style="fill:#2A5B6D;" width="655.754" height="655.759"/>
			<g>
				<g>
					<g>
						<path style="fill:#EB2227;" d="M1559.594,2130.522c11.38,9.375,26.242,14.12,40.886,13.585
							c19.592-0.312,39.089,0.421,58.686,0.109c-0.113-20.333-0.217-40.664,0.1-60.893c0.321-12.749-3.576-25.6-11.276-35.821
							c-5.261-9.058-14.115-15.482-23.282-20.018c-11.166-5.793-24.123-6.848-36.448-5.48c-13.382,2.431-25.917,9.17-35.292,19.075
							c-9.908,10.955-16.119,25.282-16.228,40.134C1536,2099.967,1544.85,2118.935,1559.594,2130.522z M1606.057,2046.769
							c6.428-1.792,13.386-0.326,19.388,2.209c10.747,6.11,16.125,18.22,18.547,29.921c3.264,14.957,2.313,30.343,1.263,45.508
							c0,1.589-0.316,3.367-1.688,4.323c-1.685,0.733-3.477,0.317-5.16,0.204c-14.115-1.995-28.551-5.368-40.665-13.371
							c-9.266-6.85-18.12-16.749-18.12-28.972C1577.937,2069.411,1589.208,2051.399,1606.057,2046.769z"/>
						<path style="fill:#EB2227;" d="M1711.101,2144.013c10.746,0.317,21.701-2.743,30.238-9.389
							c17.062-12,23.698-36.548,15.062-55.511c-7.271-17.076-25.708-28.768-44.25-28.134c-9.158-0.208-18.012,3.055-25.707,7.79
							c-12.322,8.117-20.543,22.34-20.96,37.197c0,15.911-0.525,31.809,0,47.622
							C1680.649,2144.33,1695.932,2143.587,1711.101,2144.013z M1677.811,2097.334c1.684-7.792,5.057-16.121,12.109-20.44
							c5.596-3.684,12.964-3.367,18.754-0.629c10.321,4.844,18.438,16.225,16.858,27.917c-1.263,8.326-7.688,14.857-14.749,18.76
							c-10.321,5.789-22.126,8.215-33.711,9.582C1674.963,2120.936,1675.701,2108.926,1677.811,2097.334z"/>
						<path style="fill:#EB2227;" d="M1535.158,2143.691c16.011-0.104,32.557,0.416,47.514,6.953
							c-6.646-7.691-16.646-11.172-26.025-14.124c-25.495-7.161-52.144-8.954-77.748-15.906
							c-12.217-3.259-24.132-7.791-34.562-14.952c-7.16-5.061-13.376-11.593-17.486-19.496c-2.101-4.002-3.473-8.43-5.27-12.64
							c-8.212,6.215-15.804,13.377-23.811,19.909c-1.263,1.164-2.734,2.109-3.576,3.585c1.055,2.837,3.264,5.06,5.053,7.369
							c13.805,16.962,33.402,28.872,54.578,33.928C1480.374,2145.271,1507.975,2143.587,1535.158,2143.691z"/>
						<path style="fill:#EB2227;" d="M1874.608,2079.113c-2.002,5.898-3.898,11.897-7.475,16.967
							c-7.487,11.787-19.605,19.795-32.556,24.327c-24.445,9.166-50.782,9.8-75.964,15.49c-12.848,2.313-26.129,6.636-35.821,15.803
							c6.007-1.896,11.485-5.378,17.907-6.319c8.217-1.901,16.754-1.584,25.184-2.109c12.647,0.742,25.281,0.525,37.93,1.372
							c16.011,0.208,32.34-0.312,47.834-5.062c20.747-5.581,39.089-19.273,51.09-37.083c-5.374-4.53-10.747-8.958-16.011-13.593
							C1882.829,2085.432,1879.14,2081.742,1874.608,2079.113z"/>
					</g>
				</g>
				<g>
					<g>
						<rect x="1476.187" y="2262.683" style="fill:#EB2227;" width="371.997" height="3.065"/>
						<g>
							<rect x="1677.783" y="2284.212" style="fill:#FFFFFF;" width="170.4" height="42.896"/>
							<rect x="1476.187" y="2358.31" style="fill:#FFFFFF;" width="170.39" height="160.28"/>
							<rect x="1476.187" y="2284.212" style="fill:#FFFFFF;" width="170.39" height="42.896"/>
							<rect x="1677.783" y="2358.31" style="fill:#FFFFFF;" width="170.4" height="160.28"/>
							<g>
								<polygon style="fill:#DBDBDA;" points="1476.187,2265.747 1476.187,2284.212 1646.576,2284.212 1646.576,2270.6 
									1677.783,2270.6 1677.783,2284.212 1848.184,2284.212 1848.184,2265.747 								"/>
								<rect x="1646.576" y="2270.6" style="fill:#C62129;" width="31.207" height="13.612"/>
							</g>
							<rect x="1646.576" y="2149.246" style="fill:#EB2227;" width="31.207" height="121.354"/>
							<polygon style="fill:#EB2227;" points="1677.783,2327.108 1677.783,2284.212 1646.576,2284.212 1646.576,2327.108 
								1476.187,2327.108 1476.187,2358.31 1646.576,2358.31 1646.576,2518.59 1677.783,2518.59 1677.783,2358.31 1848.184,2358.31 
								1848.184,2327.108 							"/>
							<rect x="1436.615" y="2149.246" style="fill:#FFFFFF;" width="209.961" height="121.354"/>
							<rect x="1677.783" y="2149.246" style="fill:#FFFFFF;" width="209.957" height="121.354"/>
						</g>
						<path style="fill:#EB2227;" d="M1680.572,2138.63c0,6.822-5.537,12.358-12.358,12.358h-15.599
							c-6.827,0-12.358-5.536-12.358-12.358l0,0c0-6.826,5.531-12.348,12.358-12.348h15.599
							C1675.035,2126.282,1680.572,2131.804,1680.572,2138.63L1680.572,2138.63z"/>
					</g>
				</g>
			</g>
		</g>
		<g>
			<path style="fill:#E6513E;" d="M1853.771,2899.854c0,14.727-11.937,26.664-26.662,26.664h-357.294
				c-14.722,0-26.654-11.938-26.654-26.664v-155.621c0-14.731,11.933-26.663,26.654-26.663h357.294
				c14.726,0,26.662,11.932,26.662,26.663V2899.854z"/>
			<g>
				<g>
					<path style="fill:#FFFFFF;" d="M1599.152,2784.284l-5.708,15.573l-26.477,24.399l15.572,22.326
						c0.344,5.536,0.344,10.726,0,15.573c-0.344,4.498-2.726,12.459-7.139,23.878h-70.084h-21.149l28.556-109.014l4.15-15.572
						h12.585h37.767c14.02,0,23.019,0.517,26.993,1.557c3.64,1.032,5.794,4.496,6.496,10.376
						C1600.715,2776.499,1600.194,2780.14,1599.152,2784.284z M1529.074,2865.784h6.229l8.565-33.741h-6.487L1529.074,2865.784z
						 M1542.568,2805.57h5.712l5.709-21.286h-5.709L1542.568,2805.57z"/>
					<path style="fill:#FFFFFF;" d="M1590.72,2863.193l25.952-101.745h42.57l-26.347,101.745h5.713l26.993-101.745h42.312
						l-32.715,124.586h-50.352c-14.015,0-23.014-0.521-26.988-1.559c-5.976-1.556-8.958-5.151-8.958-10.77
						C1588.9,2870.931,1589.503,2867.438,1590.72,2863.193z"/>
					<path style="fill:#FFFFFF;" d="M1750.99,2819.069h6.749l12.979-57.621h28.55h13.499l-5.577,22.836l-19.475,76.314
						l-3.241,12.714c-2.169,8.484-6.795,12.722-13.883,12.722h-68.396c-8.138,0-10.863-5.188-8.174-15.573l5.58-20.247h42.565
						l-3.113,14.019h6.749l9.343-32.705h-51.389l14.79-54.507l4.151-15.572h12.726h28.545L1750.99,2819.069z"/>
				</g>
			</g>
		</g>
	</g>
	<g>
		<g>
			<rect x="2121.12" y="1890.21" style="fill:#FFFFFF;" width="759.646" height="759.643"/>
			<rect x="2173.064" y="1942.155" style="fill:#2A5B6D;" width="655.756" height="655.758"/>
			<g>
				<path style="fill:#B0B3B6;" d="M2323.634,2034.582v420.729h320.18c16.891,36.955,32.109,50.174,32.109,50.174
					c-5.156-41.175,36.274-50.174,36.274-50.174v-420.729H2323.634z"/>
				<rect x="2287.357" y="2084.758" style="fill:#F3F3F3;" width="388.565" height="420.728"/>
				<path style="fill:#878B8D;" d="M2387.812,2149.083c0,5.957-4.839,10.792-10.805,10.792c-5.962,0-10.797-4.835-10.797-10.792
					c0-5.976,4.835-10.811,10.797-10.811C2382.973,2138.272,2387.812,2143.107,2387.812,2149.083z"/>
				<path style="fill:#878B8D;" d="M2586.413,2149.083c0,5.957-4.836,10.792-10.797,10.792c-5.962,0-10.797-4.835-10.797-10.792
					c0-5.976,4.835-10.811,10.797-10.811C2581.577,2138.272,2586.413,2143.107,2586.413,2149.083z"/>
				<path style="fill:#878B8D;" d="M2287.357,2084.758h60.165v-24.273C2345.06,2069.14,2330.08,2078.221,2287.357,2084.758z"/>
				<g>
					<path style="fill:#D5D3D2;" d="M2641.881,2034.574h-317.21c0,0,26.69,12.431,22.852,25.911v24.273h294.358v-22.137h0.158
						c-0.303-8.81,15.926-18.976,72.489-28.047H2641.881z"/>
					<path style="fill:#878B8D;" d="M2642.039,2062.621h-0.158v22.137h34.042
						C2675.923,2084.758,2642.474,2075.052,2642.039,2062.621z"/>
				</g>
				<g>
					<g>
						<path style="fill:#878B8D;" d="M2568.463,2155.683v61.763c0,36.63-41.353,66.444-92.186,66.444
							c-50.826,0-92.182-29.813-92.182-66.444v-61.763h-13.775v61.763c0,44.227,47.525,80.224,105.957,80.224
							c58.429,0,105.957-35.997,105.957-80.224v-61.763H2568.463z"/>
					</g>
				</g>
				<g>
					<g>
						<path style="fill:#D5D3D2;" d="M2568.463,2148.793v61.763c0,36.64-41.353,66.445-92.186,66.445
							c-50.826,0-92.182-29.805-92.182-66.445v-61.763h-13.775v61.763c0,44.236,47.525,80.224,105.957,80.224
							c58.429,0,105.957-35.988,105.957-80.224v-61.763H2568.463z"/>
					</g>
				</g>
			</g>
		</g>
		<g>
			<path style="fill:#E6513E;" d="M2706.25,2899.854c0,14.727-11.938,26.664-26.665,26.664H2322.29
				c-14.722,0-26.655-11.938-26.655-26.664v-155.621c0-14.731,11.934-26.663,26.655-26.663h357.295
				c14.727,0,26.665,11.932,26.665,26.663V2899.854z"/>
			<g>
				<g>
					<path style="fill:#FFFFFF;" d="M2451.628,2784.284l-5.709,15.573l-26.476,24.399l15.573,22.326
						c0.344,5.536,0.344,10.726,0,15.573c-0.344,4.498-2.726,12.459-7.139,23.878h-70.084h-21.149l28.556-109.014l4.15-15.572
						h12.586h37.765c14.021,0,23.021,0.517,26.992,1.557c3.641,1.032,5.794,4.496,6.497,10.376
						C2453.19,2776.499,2452.67,2780.14,2451.628,2784.284z M2381.551,2865.784h6.229l8.565-33.741h-6.487L2381.551,2865.784z
						 M2395.046,2805.57h5.714l5.707-21.286h-5.707L2395.046,2805.57z"/>
					<path style="fill:#FFFFFF;" d="M2443.197,2863.193l25.95-101.745h42.571l-26.347,101.745h5.713l26.993-101.745h42.313
						l-32.716,124.586h-50.353c-14.016,0-23.015-0.521-26.989-1.559c-5.974-1.556-8.957-5.151-8.957-10.77
						C2441.377,2870.931,2441.979,2867.438,2443.197,2863.193z"/>
					<path style="fill:#FFFFFF;" d="M2603.465,2819.069h6.751l12.978-57.621h28.552h13.499l-5.577,22.836l-19.475,76.314
						l-3.241,12.714c-2.169,8.484-6.795,12.722-13.884,12.722h-68.393c-8.14,0-10.865-5.188-8.176-15.573l5.582-20.247h42.562
						l-3.114,14.019h6.749l9.344-32.705h-51.385l14.789-54.507l4.151-15.572h12.721h28.547L2603.465,2819.069z"/>
				</g>
			</g>
		</g>
	</g>
	<g>
		<g>
			<rect x="2973.6" y="1890.21" style="fill:#FFFFFF;" width="759.641" height="759.643"/>
			<rect x="3025.542" y="1942.15" style="fill:#2A5B6D;" width="655.755" height="655.759"/>
			<g>
				<rect x="3121.323" y="2111.221" style="fill:#E3C08A;" width="464.198" height="378.619"/>
				<polygon style="fill:#C9A77A;" points="3555.648,2050.929 3555.205,2050.929 3554.979,2050.219 3353.422,2050.571 
					3151.865,2050.219 3151.643,2050.929 3151.195,2050.929 3121.277,2111.126 3585.566,2111.126 				"/>
				<rect x="3320.982" y="2111.221" style="fill:#F3F6FB;" width="64.894" height="156.971"/>
				<polygon style="fill:#C7C8CC;" points="3376.939,2050.544 3372.742,2050.544 3334.102,2050.544 3329.909,2050.544 
					3320.982,2111.126 3385.876,2111.126 				"/>
				<rect x="3450.402" y="2449.833" style="fill:#C19F77;" width="107.962" height="21.267"/>
				<g>
					<g>
						<polygon style="fill:#C19F77;" points="3498.134,2376.938 3480.809,2359.352 3463.218,2376.938 3468.6,2376.938 
							3468.6,2443.753 3492.747,2443.753 3492.747,2376.938 						"/>
						<polygon style="fill:#C19F77;" points="3545.558,2393.489 3532.525,2380.257 3519.288,2393.489 3523.335,2393.489 
							3523.335,2443.753 3541.511,2443.753 3541.511,2393.489 						"/>
					</g>
				</g>
				<rect x="3137.768" y="2141.075" style="fill:#C19F77;" width="74.161" height="14.173"/>
				<rect x="3225.016" y="2141.075" style="fill:#C19F77;" width="56.709" height="14.173"/>
				<rect x="3137.768" y="2170.567" style="fill:#C19F77;" width="41.449" height="14.178"/>
				<rect x="3240.285" y="2170.567" style="fill:#C19F77;" width="41.439" height="14.178"/>
				<rect x="3189.027" y="2170.567" style="fill:#C19F77;" width="41.443" height="14.178"/>
			</g>
		</g>
		<g>
			<path style="fill:#E6513E;" d="M3558.722,2899.854c0,14.727-11.933,26.664-26.658,26.664h-357.296
				c-14.723,0-26.655-11.938-26.655-26.664v-155.621c0-14.731,11.933-26.663,26.655-26.663h357.296
				c14.726,0,26.658,11.932,26.658,26.663V2899.854z"/>
			<g>
				<g>
					<path style="fill:#FFFFFF;" d="M3304.105,2784.284l-5.708,15.573l-26.478,24.399l15.571,22.326
						c0.345,5.536,0.345,10.726,0,15.573c-0.344,4.498-2.725,12.459-7.138,23.878h-70.082h-21.15l28.557-109.014l4.15-15.572h12.586
						h37.764c14.02,0,23.02,0.517,26.993,1.557c3.641,1.032,5.794,4.496,6.497,10.376
						C3305.668,2776.499,3305.147,2780.14,3304.105,2784.284z M3234.029,2865.784h6.229l8.565-33.741h-6.487L3234.029,2865.784z
						 M3247.523,2805.57h5.713l5.704-21.286h-5.704L3247.523,2805.57z"/>
					<path style="fill:#FFFFFF;" d="M3295.672,2863.193l25.953-101.745h42.57l-26.346,101.745h5.712l26.994-101.745h42.309
						l-32.711,124.586H3329.8c-14.016,0-23.015-0.521-26.988-1.559c-5.976-1.556-8.96-5.151-8.96-10.77
						C3293.852,2870.931,3294.454,2867.438,3295.672,2863.193z"/>
					<path style="fill:#FFFFFF;" d="M3455.943,2819.069h6.749l12.979-57.621h28.552h13.499l-5.577,22.836l-19.476,76.314
						l-3.24,12.714c-2.169,8.484-6.796,12.722-13.885,12.722h-68.396c-8.136,0-10.86-5.188-8.171-15.573l5.581-20.247h42.563
						l-3.115,14.019h6.749l9.345-32.705h-51.391l14.79-54.507l4.15-15.572h12.726h28.546L3455.943,2819.069z"/>
				</g>
			</g>
		</g>
	</g>
</g>
<path style="fill:#F9E2B9;" d="M4071.718,2975.376c-40.705,26.646-52.298,80.32-28.86,122.046c-0.499,0.216-0.9,0.267-1.247,0.393
	l-47.074-71.911c-27.78-42.434-85.204-54.476-127.713-26.648c-42.364,27.736-54.432,85.275-26.651,127.71l-50.529-77.184
	c-27.782-42.436-85.206-54.479-127.716-26.647c-42.354,27.726-54.431,85.271-26.65,127.708l-202.115-308.729
	c-27.779-42.434-85.199-54.482-127.711-26.65c-42.358,27.729-54.429,85.272-26.649,127.706l32.269,49.294l270.9,413.798
	l36.515,55.776c6.166,9.418,3.053,23.411-4.217,32.053c-7.265,8.635-20.392,12.269-30.82,7.846
	c-105.313-36.846-149.608-112.401-231.464-58.813c-18.998,12.435-30.066,34.007-29.012,56.677
	c1.24,22.607,14.188,43.05,34.234,53.608l582.518,362.149c14.782,7.773,32.729,6.897,46.746-2.28
	c67.538-44.212,305.715-200.14,450.885-295.178c63.91-41.84,81.869-127.573,39.977-191.565
	c-135.398-206.818-277.907-424.5-277.907-424.5C4171.642,2959.599,4114.229,2947.548,4071.718,2975.376z"/>
<g>
	<path style="fill:#C3E1DB;" d="M4250.56,3801.671l-252.223,165.122c-26.554,17.383-33.986,53.005-16.602,79.563l125.617,191.878
		c17.386,26.555,53.006,33.992,79.563,16.606l252.221-165.119l-42.877-65.495L4250.56,3801.671z"/>
	<path style="fill:#9AD2D9;" d="M4502.775,3636.554l-252.216,165.117l145.699,222.555l42.877,65.495l252.217-165.12
		c26.559-17.387,33.987-53.009,16.602-79.564l-125.617-191.877C4564.952,3626.601,4529.337,3619.163,4502.775,3636.554z"/>
</g>
<path style="fill:#5197AF;" d="M859.271,209.557H429.906l-2.835-9.137c0.328-1.061,0.559-2.16,0.679-3.289
	c0.063-0.604,0.199-1.188,0.199-1.814c0-5.313-2.427-10.11-6.333-13.571c-3.832-3.404-9.097-5.511-14.918-5.511H397.8H252.965
	c-11.735,0-21.251,8.543-21.251,19.082c0,10.538,9.516,19.083,21.251,19.083h152.727l65.432,209.372
	c1.683,5.44,6.17,9.074,11.202,9.074h9.364l-16.114,74.763c-25.267,0.899-45.48,21.658-45.48,47.146
	c0,26.058,21.129,47.189,47.186,47.189c23.329,0,42.693-16.94,46.497-39.186h151.227c3.805,22.246,23.168,39.186,46.499,39.186
	c26.059,0,47.188-21.131,47.188-47.189c0-26.062-21.129-47.189-47.188-47.189c-22.091,0-40.633,15.186-45.77,35.687H523.049
	c-3.895-15.552-15.509-28.032-30.534-33.156l16.649-77.25h309.374c6.577,0,11.899-6.121,11.899-13.681
	c0-7.564-5.322-13.684-11.899-13.684h-27.257l8.853-27.365h3.383c4.484,0,8.12-4.168,8.12-9.339c0-4.15-2.356-7.662-5.611-8.879
	l18.345-56.712h7.783c4.497,0,8.123-4.184,8.123-9.341c0-5.171-3.626-9.355-8.123-9.355h-1.735l18.196-56.253h10.656
	c4.485,0,8.121-4.178,8.121-9.338C867.393,213.726,863.757,209.557,859.271,209.557z M721.504,519.363
	c19.537,0,35.391,15.854,35.391,35.391c0,19.562-15.853,35.39-35.391,35.39c-16.789,0-30.845-11.689-34.474-27.387
	c-0.595-2.572-0.92-5.25-0.92-8.003c0-4.028,0.683-7.894,1.924-11.502C692.813,529.357,705.991,519.363,721.504,519.363z
	 M510.747,543.252c1.242,3.609,1.924,7.475,1.924,11.502c0,2.754-0.325,5.432-0.919,8.003
	c-3.629,15.698-17.684,27.387-34.472,27.387c-19.537,0-35.39-15.829-35.39-35.39c0-18.082,13.582-32.997,31.093-35.121
	c1.41-0.172,2.842-0.27,4.297-0.27c4.488,0,8.776,0.845,12.727,2.37C499.714,525.479,507.352,533.377,510.747,543.252z
	 M458.958,303.186h41.787l6.337,56.251h-30.668L458.958,303.186z M517.209,303.186h44.071l3.347,56.251h-41.032L517.209,303.186z
	 M637.685,303.186h46.856l-8.299,56.251h-38.78L637.685,303.186z M621.726,359.438h-40.151l-3.617-56.251h43.782L621.726,359.438z
	 M637.759,284.49l0.222-56.253H695.6l-8.3,56.253H637.759z M621.743,284.49h-44.987l-3.617-56.253h48.617L621.743,284.49z
	 M560.168,284.49h-45.081l-6.386-56.253h48.12L560.168,284.49z M565.738,378.115l1.628,27.365H528.82l-3.106-27.365H565.738z
	 M582.775,378.115h38.947l-0.006,27.365h-37.182L582.775,378.115z M637.388,378.115h36.098l-4.038,27.365h-32.168L637.388,378.115z
	 M689.988,378.115h38.556l-6.599,27.365h-35.991L689.988,378.115z M692.742,359.438l8.292-56.251h45.581l-13.566,56.251H692.742z
	 M703.79,284.49l8.292-56.253h52.608l-13.566,56.253H703.79z M492.302,228.237l6.337,56.253h-45.481l-17.456-56.253H492.302z
	 M482.21,378.115h26.977l3.083,27.365h-21.569L482.21,378.115z M772.865,405.48h-33.879l6.571-27.365h36.32L772.865,405.48z
	 M788.025,359.438H750.04l13.505-56.251h43.005L788.025,359.438z M812.706,284.49h-44.674l13.505-56.253h49.693L812.706,284.49z"/>
<g>
	<path style="fill:#5197AF;" d="M1201.819,276.535c-62.066,0-112.567,50.486-112.567,112.553
		c0,62.06,50.501,112.554,112.567,112.554c62.064,0,112.554-50.494,112.554-112.554
		C1314.373,327.021,1263.883,276.535,1201.819,276.535z M1210.495,448.074v19.669h-18.894v-18.315
		c-12.917-0.571-25.451-4.049-32.775-8.281l5.788-22.57c8.094,4.434,19.474,8.487,32.001,8.487c10.985,0,18.509-4.222,18.509-11.943
		c0-7.329-6.174-11.951-20.438-16.781c-20.627-6.931-34.706-16.567-34.706-35.267c0-16.963,11.963-30.268,32.586-34.312V310.45
		h18.892v16.955c12.913,0.58,21.587,3.287,27.948,6.362l-5.587,21.77c-5.013-2.101-13.884-6.544-27.764-6.544
		c-12.532,0-16.569,5.403-16.569,10.805c0,6.357,6.74,10.406,23.13,16.569c22.93,8.106,32.194,18.693,32.194,36.056
		C1244.809,429.563,1232.661,444.207,1210.495,448.074z"/>
	<path style="fill:#5197AF;" d="M1364.846,353.563c-1.157-5.338-2.572-10.573-4.219-15.705
		c-7.716-23.952-20.71-45.516-37.605-63.372c-30.403-32.155-73.436-52.245-121.188-52.245c-92.157,0-166.865,74.683-166.865,166.826
		c0,92.166,74.708,166.872,166.865,166.872c57.068,0,107.428-28.676,137.512-72.392c11.227-16.315,19.616-34.731,24.482-54.543
		c1.194-4.85,2.197-9.773,2.954-14.777c1.24-8.207,1.889-16.601,1.889-25.159C1368.67,376.879,1367.332,365.004,1364.846,353.563z
		 M1201.819,517.533c-70.937,0-128.451-57.507-128.451-128.451c0-70.939,57.515-128.438,128.451-128.438
		c70.945,0,128.441,57.5,128.441,128.438C1330.26,460.026,1272.764,517.533,1201.819,517.533z"/>
</g>
<g>
	<g>
		<path style="fill:#5197AF;" d="M1715.168,530.771c-5.312-7.35-15.594-9.018-22.983-3.73l-8.909,6.391
			c-3.764,2.697-6.027,6.687-6.655,10.92l-79.325-109.705c4.596,1.209,9.68,0.439,13.844-2.544l8.895-6.381
			c7.386-5.301,9.063-15.552,3.756-22.905l-29.946-41.398c-4.584-6.347-12.874-8.442-19.814-5.497
			c-1.099,0.463-2.167,1.047-3.175,1.767l-8.895,6.392c-5.099,3.652-7.468,9.662-6.711,15.447c-0.741,0.576-1.465,1.163-2.169,1.772
			c-20.686,17.673-24.688,48.479-8.462,70.924l100.497,138.971c12.413,17.163,33.228,24.68,52.808,21.035
			c2.7-0.528,9.117-2.068,15.818-5.668c0.575-0.319,1.146-0.631,1.713-0.971c0.103-0.058,0.205-0.122,0.302-0.182
			c0.818-0.494,1.634-1.013,2.43-1.556c4.71,1.375,9.98,0.663,14.274-2.417l1.019-0.729l7.89-5.662
			c3.591-2.58,5.821-6.336,6.56-10.359c0.771-4.231-0.105-8.758-2.829-12.528L1715.168,530.771z"/>
		<path style="fill:#5197AF;" d="M1689.77,422.038l-21.792,19.637v23.762h119.596v-32.287h-63.557v-0.519l15.565-12.918
			c24.382-21.705,44.876-44.183,44.876-72.349c0-30.489-21.011-52.706-59.151-52.706c-22.823,0-42.538,7.753-55.256,17.313
			l11.159,28.161c8.823-6.721,21.533-13.951,36.059-13.951c19.459,0,27.757,10.856,27.757,24.543
			C1744.511,370.362,1726.611,389.22,1689.77,422.038z"/>
		<path style="fill:#5197AF;" d="M1870.849,297.5l-63.818,102.317v25.576h74.709v40.042h37.352v-40.042h20.238v-29.456h-20.238
			V297.5H1870.849z M1881.74,358.733v37.205h-37.88v-0.512l22.572-36.693c5.708-10.59,10.123-20.412,15.569-31.262h1.036
			C1882.255,338.322,1881.74,348.657,1881.74,358.733z"/>
		<path style="fill:#5197AF;" d="M1955.423,519.826c26.511-36.83,42.13-81.962,42.13-130.736
			c0-124.054-100.979-224.619-225.537-224.619c-19.458,0-38.341,2.468-56.358,7.088l-35.74-7.088l5.398,17.22
			c-69.928,29.044-122.026,92.147-135.406,168.507l20.772-7.693c8.598-37.178,27.474-71.306,55.222-98.943
			c18.997-18.924,41.048-33.69,65.036-43.887l7.276,23.258l34.393-35.926c12.854-2.462,26.037-3.73,39.407-3.73
			c55.202,0,107.092,21.411,146.125,60.286c39.029,38.867,60.526,90.553,60.526,145.529c0,43.141-13.234,84.247-37.798,118.729
			l-17.269-14.255l-8.201,43.733c-38.706,37.174-89.459,57.608-143.384,57.608c-0.803,0-1.624-0.013-2.435-0.023l-13.238,18.283
			c5.184,0.365,10.404,0.543,15.672,0.543c61.918,0,117.999-24.853,158.751-65.082l40.172-15.997L1955.423,519.826z"/>
	</g>
</g>
<g>
	<path style="fill:#5197AF;" d="M2427.863,169.94c0-22.382-18.135-40.518-40.517-40.518h-24.996h-24.997
		c-22.381,0-40.516,18.136-40.516,40.518v210.616h-46.408l111.92,124.456l0.187,0.206l111.735-124.663h-46.409V169.94z
		 M2308.732,276.604c0-6.825,2.303-12.533,6.905-17.138c4.605-4.606,10.314-6.91,17.14-6.91c6.819,0,12.533,2.304,17.14,6.91
		c4.602,4.605,6.904,10.313,6.904,17.138c0,6.82-2.302,12.536-6.904,17.137c-4.607,4.604-10.321,6.906-17.14,6.906
		c-6.825,0-12.535-2.302-17.14-6.906C2311.035,289.14,2308.732,283.424,2308.732,276.604z M2362.351,315.307l-19.152,33.879h-15.727
		l34.879-61.561l19.469-34.361h15.608L2362.351,315.307z M2409.13,342.854c-4.566,4.558-10.233,6.841-17.011,6.841
		c-6.776,0-12.449-2.283-17.012-6.841c-4.564-4.563-6.841-10.233-6.841-17.011c0-6.78,2.276-12.45,6.841-17.011
		c4.563-4.564,10.235-6.84,17.012-6.84c6.777,0,12.444,2.276,17.011,6.84c4.562,4.561,6.846,10.231,6.846,17.011
		C2415.976,332.622,2413.691,338.292,2409.13,342.854z"/>
	<path style="fill:#5197AF;" d="M2344.734,276.539c0-3.62-1.126-6.637-3.386-9.048c-2.264-2.41-5.208-3.612-8.829-3.612
		c-3.539,0-6.438,1.202-8.697,3.612c-2.26,2.411-3.392,5.428-3.392,9.048c0,3.622,1.131,6.651,3.392,9.083
		c2.259,2.428,5.18,3.645,8.758,3.645c3.582,0,6.503-1.216,8.767-3.645C2343.607,283.19,2344.734,280.16,2344.734,276.539z"/>
	<path style="fill:#5197AF;" d="M2391.738,313.436c-3.459,0-6.29,1.182-8.507,3.548c-2.22,2.371-3.328,5.304-3.328,8.792
		c0,3.544,1.108,6.499,3.328,8.858c2.217,2.364,5.071,3.552,8.567,3.552c3.495,0,6.352-1.188,8.566-3.552
		c2.219-2.36,3.328-5.314,3.328-8.858c0-3.488-1.109-6.42-3.328-8.792C2398.15,314.618,2395.272,313.436,2391.738,313.436z"/>
	<path style="fill:#5197AF;" d="M2220.505,575.456c-15.555-5.898-22.351-9.297-22.351-16.984c0-6.254,5.72-11.621,17.522-11.621
		c11.801,0,20.377,3.399,25.205,5.724l6.078-21.991c-7.15-3.217-17.162-6.078-30.747-6.078c-28.423,0-45.587,15.73-45.587,36.292
		c0,17.52,13.047,28.604,33.07,35.575c14.483,5.184,20.201,9.475,20.201,16.983c0,7.87-6.612,13.054-19.124,13.054
		c-11.623,0-22.884-3.757-30.212-7.508l-5.545,22.522c6.793,3.754,20.377,7.333,34.147,7.333c33.072,0,48.627-17.163,48.627-37.366
		C2251.791,594.408,2241.78,583.324,2220.505,575.456z"/>
	<path style="fill:#5197AF;" d="M2298.263,526.473l-36.821,120.496h28.243l8.579-30.933h34.506l9.292,30.933h29.322l-37.364-120.496
		H2298.263z M2302.195,595.659l7.149-25.566c1.971-6.97,3.757-16.087,5.545-23.241h0.358c1.79,7.153,3.93,16.092,6.077,23.241
		l7.506,25.566H2302.195z"/>
	<polygon style="fill:#5197AF;" points="2414.818,526.473 2387.463,526.473 2387.463,646.969 2462.73,646.969 2462.73,624.085 
		2414.818,624.085 	"/>
	<polygon style="fill:#5197AF;" points="2506.161,624.623 2506.161,596.017 2550.497,596.017 2550.497,573.851 2506.161,573.851 
		2506.161,548.821 2553.179,548.821 2553.179,526.473 2478.81,526.473 2478.81,646.969 2555.684,646.969 2555.684,624.623 	"/>
</g>
<g>
	<path style="fill:#5197AF;" d="M3300.056,351.7c-6.351-0.999-12.492,3.338-13.549,9.771l-11.752,72.357h-55.435v-64.195h-11.809
		v64.195h-60.381v-66.283h-11.804v66.283h-57.234v-65.24h-11.806v65.24h-60.383v-65.24h-11.81v65.24h-59.34v-66.283h-11.812v66.283
		h-59.292l-8.87-68.843c-0.829-6.458-6.537-11.068-13.228-10.2c-6.468,0.83-11.032,6.754-10.204,13.222l26.152,202.957
		c0.763,5.896,5.782,10.299,11.718,10.299h395.469c5.789,0,10.726-4.198,11.659-9.916l33.476-206.096
		C3310.861,358.816,3306.491,352.751,3300.056,351.7z M3272.84,445.638l-10.147,62.431l-43.372-0.116v-62.315H3272.84z
		 M3207.512,445.638v62.295l-60.381-0.162v-62.133H3207.512z M3005.904,519.222l60.383,0.153v38.271h-60.383V519.222z
		 M2994.095,557.646h-59.34v-38.597l59.34,0.151V557.646z M3078.093,519.406l57.234,0.152v38.088h-57.234V519.406z M3147.131,519.58
		l60.381,0.162v37.904h-60.381V519.58z M3135.327,445.638v62.109l-57.234-0.15v-61.959H3135.327z M3066.287,445.638v61.924
		l-60.383-0.148v-61.776H3066.287z M2994.095,445.638v61.753l-59.34-0.151v-61.602H2994.095z M2922.943,445.638v61.568
		l-49.848-0.128l-7.924-61.44H2922.943z M2874.616,518.887l48.327,0.128v38.63h-43.333L2874.616,518.887z M3219.32,557.646v-37.882
		l41.46,0.105l-6.134,37.777H3219.32z"/>
	<path style="fill:#5197AF;" d="M3331.643,338.775c0,20.509-16.627,37.138-37.146,37.138h-447.76
		c-20.52,0-37.146-16.628-37.146-37.138l0,0c0-20.516,16.627-37.147,37.146-37.147h447.76
		C3315.016,301.628,3331.643,318.26,3331.643,338.775L3331.643,338.775z"/>
	<path style="fill:#5197AF;" d="M2920.698,343.228c-4.646,0-9.284-1.813-12.769-5.429c-6.778-7.044-6.561-18.257,0.484-25.047
		l110.903-106.713c7.046-6.791,18.243-6.572,25.043,0.484c6.783,7.049,6.563,18.258-0.479,25.05l-110.9,106.711
		C2929.539,341.586,2925.114,343.228,2920.698,343.228z"/>
	<path style="fill:#5197AF;" d="M3207.354,344.274c-4.59,0-9.181-1.77-12.64-5.304l-109.851-111.943
		c-6.847-6.985-6.748-18.201,0.231-25.055c6.988-6.838,18.22-6.726,25.046,0.236l109.854,111.946
		c6.848,6.982,6.743,18.195-0.234,25.054C3216.314,342.586,3211.828,344.274,3207.354,344.274z"/>
</g>
<g>
	<path style="fill:#5197AF;" d="M4067.782,337.763v235.866H3550.09V337.763H4067.782 M4089.813,315.727h-561.759v279.932h561.759
		V315.727L4089.813,315.727z"/>
	<rect x="3594.703" y="376.671" style="fill:#5197AF;" width="251.358" height="22.847"/>
	<rect x="3594.703" y="418.561" style="fill:#5197AF;" width="251.358" height="15.242"/>
	<rect x="3594.703" y="455.497" style="fill:#5197AF;" width="251.358" height="12.777"/>
	<path style="fill:#5197AF;" d="M4026.549,547.313c-1.125,0-2.258-0.352-3.232-1.053l-21.853-15.85l-23.653,15.953
		c-2.051,1.386-4.778,1.224-6.658-0.388l-27.154-23.275l-25.79,20.306c-1.804,1.423-4.303,1.576-6.268,0.379l-34.675-21.037
		l-27.617,23.635c-1.666,1.424-4.01,1.723-5.972,0.782l-49.259-23.73c-2.743-1.32-3.895-4.612-2.57-7.349
		c1.316-2.75,4.617-3.896,7.343-2.576l46.021,22.158l27.92-23.888c1.815-1.531,4.404-1.756,6.442-0.514l34.821,21.122l26.343-20.746
		c2.06-1.627,4.995-1.56,6.996,0.146l27.398,23.488l23.367-15.754c1.921-1.305,4.44-1.248,6.314,0.103l24.97,18.11
		c2.465,1.79,3.012,5.224,1.228,7.696C4029.936,546.517,4028.251,547.313,4026.549,547.313z"/>
	<path style="fill:#5197AF;" d="M3899.104,478.64c2.821-0.128,6.359-1.662,10.392-4.719l58.231-44.422
		c1.339-1.021,2.457-2.137,3.476-3.24l0.168,0.104l0.555-0.884c1.262-1.526,2.178-3.115,2.904-4.727l11.123-18.044l9.957-16.179
		l30.076-48.77l0,0l21.385-34.68l7.969-12.93l12.967-21.039l20.895-33.897c0.444-0.694,0.718-1.484,1.092-2.234
		c0.373-0.438,0.829-0.846,1.153-1.372c2.269-3.693,2.759-8.098,1.788-12.556c-0.543-8.792-5.124-17.163-13.104-22.081
		l-16.788-10.347c-4.909-3.033-10.423-4.327-15.803-4.07c-3.157,0.146-6.188,0.992-9.112,2.158c-4.718,1.083-8.712,3.504-11.1,7.357
		c-0.354,0.591-0.553,1.256-0.824,1.889c-0.45,0.597-1.013,1.089-1.414,1.734l-36.525,59.251l-2.341,3.795l0.021-0.007l-14.59,23.65
		l-11.016,17.883l-38.794,62.949l-11.486,18.621c-0.909,1.186-1.777,2.459-2.437,3.962l-0.66,1.071l0.247,0.148
		c-0.54,1.438-1.159,2.793-1.465,4.473l-13.524,71.966C3890.627,473.491,3893.403,478.914,3899.104,478.64z M4029.969,214.262
		c2.58,3.649,6.029,7.056,10.348,9.727l16.781,10.345c4.333,2.677,8.91,4.231,13.332,4.905l-13.96,22.602l-40.446-24.947
		L4029.969,214.262z M3991.699,281.448h-0.017l14.584-23.648l4.722-7.691l7.536,4.632c0,0-2.339,3.812-2.505,4.058
		c-0.837,1.358-9.192,14.907-13.645,22.153c-20.374,33.039-62.262,101.021-62.262,101.021l-5.267-3.257
		c-0.818-0.507-1.636-0.688-2.44-1.091L3991.699,281.448z M3919.618,394.452l39.334,24.263l-51.229,39.065L3919.618,394.452z"/>
</g>
<g>
	<polygon style="fill:#5197AF;" points="4492.684,175.059 4475.416,175.059 4475.416,454.446 4492.684,442.22 	"/>
	<path style="fill:#5197AF;" d="M4550.223,532.8h34.992c-7.102-2.846-13.959-6.266-20.492-10.254L4550.223,532.8z"/>
	<path style="fill:#5197AF;" d="M4635.057,175.059h-15.381v92.136c5.1-0.646,10.23-1.001,15.381-1.074V175.059z"/>
	<path style="fill:#5197AF;" d="M4550.947,295.934c12.063-9.519,25.654-16.932,40.031-21.993v-98.882h-71.549v155.968
		C4527.736,317.748,4538.307,305.921,4550.947,295.934z"/>
	<polygon style="fill:#5197AF;" points="4447.782,175.059 4413.269,175.059 4413.269,498.418 4447.782,473.993 	"/>
	<rect x="4304.41" y="175.059" style="fill:#5197AF;" width="28.046" height="357.741"/>
	<polygon style="fill:#5197AF;" points="4365.414,532.28 4365.414,175.059 4349.611,175.059 4349.611,532.8 4364.686,532.8 	"/>
	<polygon style="fill:#5197AF;" points="4392.55,175.059 4376.787,175.059 4376.787,524.22 4392.55,513.085 	"/>
	<path style="fill:#5197AF;" d="M4672.457,270.884v-95.825h-15.375v92.599c3.754,0.555,7.486,1.269,11.176,2.133
		C4669.68,270.141,4671.076,270.5,4672.457,270.884z"/>
	<path style="fill:#5197AF;" d="M4729.334,175.059h-23.494v109.637c8.39,4.862,16.279,10.569,23.494,17.073V175.059z"/>
	<path style="fill:#5197AF;" d="M4705.84,524.181v8.619h23.494v-25.686c-2.414,2.175-4.889,4.291-7.454,6.305
		C4716.777,517.396,4711.402,520.971,4705.84,524.181z"/>
	<path style="fill:#5197AF;" d="M4749.841,175.059v149.876c16.284,23.205,25.218,51.116,25.218,79.434
		c0,10.367-1.207,20.72-3.521,30.782v0.202l-0.258,1.074c-4.073,17.116-11.424,33.245-21.438,47.511V532.8h32.042V175.059H4749.841z
		"/>
	<path style="fill:#5197AF;" d="M4762.088,434.23v-0.036l0.059-0.413c2.329-9.801,3.436-19.679,3.436-29.413v-0.036
		c0-21.9-5.601-42.983-15.741-61.535c-3.354-6.165-7.222-12.028-11.538-17.558c-2.808-3.594-5.795-7.052-8.969-10.343
		c-6.99-7.235-14.854-13.694-23.494-19.194c-10.139-6.438-21.316-11.541-33.383-15.013c-2.092-0.6-4.208-1.177-6.363-1.688
		c-1.231-0.288-2.451-0.551-3.684-0.81c-0.209-0.043-0.414-0.079-0.633-0.114c-1.01-0.206-2.037-0.412-3.048-0.579
		c-0.386-0.079-0.764-0.125-1.147-0.182c-0.179-0.04-0.332-0.049-0.5-0.089c-0.686-0.11-1.369-0.22-2.055-0.316
		c-0.418-0.075-0.871-0.124-1.288-0.174c-0.803-0.118-1.594-0.22-2.394-0.313c-0.509-0.068-1.049-0.103-1.563-0.156
		c-0.697-0.068-1.416-0.156-2.109-0.217c-0.568-0.046-1.117-0.085-1.681-0.121c-0.665-0.048-1.332-0.092-2.005-0.142
		c-0.58-0.028-1.154-0.053-1.746-0.067c-0.622-0.032-1.281-0.068-1.916-0.082c-0.584-0.033-1.178-0.033-1.779-0.033
		c-0.606-0.007-1.203-0.024-1.805-0.024c-0.057,0-0.086,0-0.126,0h-1.062c-0.161,0-0.318,0.018-0.498,0.018
		c-5.176,0.053-10.314,0.431-15.381,1.106c-9.908,1.322-19.512,3.802-28.697,7.299c-31.19,11.872-57.293,35.662-71.549,67.152
		c-3.412,7.548-6.173,15.523-8.135,23.901c-2.326,9.862-3.441,19.736-3.441,29.478c0,11.213,1.477,22.158,4.293,32.7l0.611,2.36
		l-20.074,14.217l-17.268,12.233l-5.396,3.809l-6.449,4.568l-15.788,11.156l-34.514,24.423l-20.719,14.671l-11.492,8.125
		l-44.259,31.309c-10.971,7.743-16.966,20.08-17.059,32.526l0.182,0.864l-0.158,0.302c0.177,7.808,2.6,15.677,7.43,22.497
		l2.76,3.888l1.658,2.338c7.834,11.021,20.299,16.964,32.827,16.982h0.104l0.053-0.018c7.971,0,16.174-2.428,23.17-7.396
		l5.592-3.974v0.025l108.036-76.406l5.612-3.953l26.846-18.985l30.605-21.644l1.982,1.293c7.6,4.947,15.815,9.134,24.539,12.45
		c5.265,2.016,10.703,3.682,16.322,5.004c4.142,0.97,8.262,1.688,12.375,2.243c1.905,0.263,3.822,0.476,5.723,0.654
		c3.818,0.326,7.623,0.504,11.413,0.504h0.03c6.834,0,13.602-0.568,20.24-1.634c5.213-0.832,10.353-1.984,15.375-3.441
		c11.826-3.433,23.069-8.523,33.383-15.09c8.525-5.416,16.425-11.843,23.494-19.149c7.971-8.236,14.909-17.573,20.507-27.878
		C4755.199,456.29,4759.359,445.628,4762.088,434.23z M4455.574,570.012l-68.621,45.684c-4.362,2.9-9.348,4.318-14.264,4.318
		c-8.279,0-16.48-4.048-21.395-11.456c0-0.003-0.002-0.006-0.002-0.006c-2.959-4.401-4.354-9.362-4.354-14.252
		c0-8.313,4.032-16.492,11.479-21.435l60.2-40.065l8.418-5.612c4.349-2.918,9.343-4.336,14.246-4.336c2.189,0,4.382,0.285,6.5,0.843
		c4.083,1.059,7.908,3.141,11.08,6.12c1.42,1.332,2.724,2.829,3.833,4.524c2.957,4.368,4.346,9.336,4.346,14.259
		C4467.041,556.867,4462.998,565.036,4455.574,570.012z M4705.84,454.033c-8.75,11.125-20.197,20.006-33.383,25.661
		c-4.9,2.104-10.047,3.756-15.375,4.912c-5.865,1.274-11.932,1.947-18.182,1.955c-1.285,0-2.563-0.032-3.844-0.085
		c-5.262-0.241-10.412-0.975-15.381-2.129c-10.426-2.414-20.141-6.72-28.697-12.579c-8.757-5.984-16.332-13.576-22.322-22.333
		c-9.336-13.651-14.813-30.158-14.831-47.945c0.03-29.194,14.751-54.946,37.153-70.287c8.557-5.85,18.271-10.165,28.697-12.585
		c4.969-1.148,10.119-1.88,15.381-2.118c1.281-0.046,2.559-0.088,3.844-0.088c6.25,0,12.316,0.682,18.182,1.954
		c5.328,1.156,10.475,2.802,15.375,4.914c13.186,5.65,24.633,14.549,33.383,25.669c0.01,0.008,0.019,0.019,0.028,0.033
		c11.361,14.473,18.157,32.698,18.157,52.51C4724.025,421.344,4717.219,439.575,4705.84,454.033z"/>
</g>
<g>
	<path style="fill:#B92327;" d="M5000,4215.199l-324.592-496.065c-11.647-17.79-41.981-18.531-67.763-1.652l-291.748,190.999
		L5000,4953.947V4215.199z"/>
	<path style="fill:#EF5755;" d="M5000,4953.947L4315.897,3908.48l-291.751,190.999c-25.776,16.877-37.236,44.977-25.592,62.768
		L4546.729,5000H5000V4953.947z"/>
</g>
<path style="fill:#C3E1DB;" d="M4722.088,3866.625c16.874,25.774,9.663,60.354-16.118,77.232
	c-25.777,16.876-60.352,9.654-77.229-16.121c-16.875-25.777-9.664-60.354,16.113-77.231
	C4670.638,3833.628,4705.212,3840.847,4722.088,3866.625z"/>
<path style="fill:#C3E1DB;" d="M4887.988,4120.032c16.876,25.784,9.661,60.356-16.118,77.234
	c-25.775,16.875-60.354,9.658-77.231-16.122c-16.877-25.78-9.658-60.353,16.118-77.229
	C4836.537,4087.041,4871.111,4094.254,4887.988,4120.032z"/>
<path style="fill:#C3E1DB;" d="M4805.037,3993.327c16.878,25.785,9.661,60.355-16.12,77.231
	c-25.775,16.876-60.348,9.662-77.227-16.12c-16.875-25.776-9.661-60.354,16.114-77.23
	C4753.586,3960.335,4788.163,3967.551,4805.037,3993.327z"/>
</svg>
